# xmcd
#
# Track frame offsets:
#	150
#	15086
#	32865
#	50226
#	70043
#	83050
#	104016
#	121739
#	138796
#	154568
#	171325
#	191596
#	210335
#
# Disc length: 2909 seconds
#
# Revision: 1
# Processed by: cddbd v1.5.2PL0 Copyright (c) Steve Scherf et al.
# Submitted via: EasyCDDAExtractor 10.0.6.1
#
DISCID=a30b5b0d
DTITLE=Various Artist - Saga Farrapa
DYEAR=1998
DGENRE=Gaúcha
TTITLE0=Omair Trindade - Caudilho, Pampa e a História
TTITLE1=Grupo Rodeio - Gaúchos de Fato
TTITLE2=Tchê Garotos - Bandeira do Rio Grande
TTITLE3=Chiquito e Grupo Bordoneio - Meu Rio Grande do Sul
TTITLE4=Tchê Barbaridade - Setembro em Livramento
TTITLE5=Ivan Taborda - Semana Farroupilha
TTITLE6=Grupo Renascença - Grito Farrapo
TTITLE7=Pedro Ortaça - Pampa Livre
TTITLE8=Grupo Rodeio - Gritos de Liberdade
TTITLE9=Os Farrapos - Mensagem de um Farrapo
TTITLE10=Candeeiro - Rio Grande Tchê
TTITLE11=Grupo Legendas - Semana Farroupilha
TTITLE12=Coral La Salle (Acapella) - Hino Rio-Grandense
EXTD=YEAR: 1998 ID3G:  12
EXTT0=
EXTT1=
EXTT2=
EXTT3=
EXTT4=
EXTT5=
EXTT6=
EXTT7=
EXTT8=
EXTT9=
EXTT10=
EXTT11=
EXTT12=
PLAYORDER=
